<svg xmlns="http://www.w3.org/2000/svg" xmlns:xlink="http://www.w3.org/1999/xlink" width="500" zoomAndPan="magnify" viewBox="0 0 375 374.999991" height="500" preserveAspectRatio="xMidYMid meet" version="1.2"><defs><clipPath id="1e696d9fa9"><path d="M 21 55 L 349 55 L 349 324.210938 L 21 324.210938 Z M 21 55 "/></clipPath></defs><g id="eaaa95e7aa"><g clip-rule="nonzero" clip-path="url(#1e696d9fa9)"><path style=" stroke:none;fill-rule:nonzero;fill:#ffffff;fill-opacity:1;" d="M 316.074219 187.902344 C 320.589844 230.710938 302.527344 271.265625 269.222656 297.738281 C 247.210938 314.636719 220.679688 323.648438 193.585938 323.648438 C 178.910156 323.648438 164.234375 320.832031 150.125 315.761719 C 147.300781 314.636719 145.609375 311.257812 146.738281 308.441406 C 147.867188 305.625 151.253906 303.933594 154.074219 305.0625 C 190.765625 318.578125 231.40625 312.382812 262.449219 288.726562 C 292.929688 265.070312 309.300781 227.328125 305.347656 189.027344 C 304.785156 186.210938 307.042969 183.394531 310.429688 182.832031 C 313.25 182.269531 316.074219 184.519531 316.074219 187.902344 Z M 104.96875 286.472656 C 106.097656 287.601562 107.789062 288.164062 108.917969 288.164062 C 110.613281 288.164062 111.742188 287.601562 112.871094 286.472656 C 115.128906 284.21875 115.128906 280.839844 112.871094 278.585938 C 110.046875 275.769531 107.226562 272.390625 104.402344 269.011719 C 66.585938 220.007812 75.050781 149.597656 124.160156 111.859375 C 147.867188 93.269531 177.21875 85.386719 207.132812 89.328125 C 237.050781 93.269531 263.578125 107.917969 281.640625 131.574219 C 285.027344 136.078125 287.851562 140.585938 290.671875 145.09375 C 292.367188 147.910156 295.753906 148.472656 298.574219 147.34375 C 301.398438 145.65625 301.960938 142.277344 300.832031 139.460938 C 298.011719 134.390625 294.625 129.320312 290.671875 124.816406 C 270.351562 98.902344 241 82.007812 208.261719 78.0625 C 176.089844 73.558594 143.351562 82.570312 117.386719 102.847656 C 63.761719 144.527344 54.167969 222.261719 95.9375 275.769531 C 98.757812 279.714844 101.582031 283.09375 104.96875 286.472656 Z M 170.445312 275.207031 C 168.75 272.390625 165.363281 271.828125 162.542969 273.519531 C 101.582031 310.132812 49.652344 323.085938 36.105469 305.625 C 26.507812 293.796875 36.105469 266.757812 60.941406 233.527344 C 62.632812 231.273438 62.070312 227.328125 59.8125 225.640625 C 57.554688 223.949219 53.601562 224.511719 51.910156 226.765625 C 22.558594 265.070312 14.089844 295.484375 27.074219 312.382812 C 33.847656 320.832031 44.570312 324.210938 57.554688 324.210938 C 87.46875 324.210938 130.933594 305.625 168.75 283.09375 C 171.007812 281.402344 172.136719 278.023438 170.445312 275.207031 Z M 259.0625 79.191406 C 296.882812 63.980469 325.105469 61.726562 334.136719 73.558594 C 347.683594 91.582031 320.589844 140.585938 269.222656 191.28125 C 266.964844 193.535156 266.964844 196.914062 269.222656 199.167969 C 270.351562 200.292969 272.046875 200.855469 273.175781 200.855469 C 274.867188 200.855469 275.996094 200.292969 277.125 199.167969 C 335.828125 142.277344 361.230469 90.453125 343.167969 66.796875 C 330.183594 50.460938 299.140625 51.027344 255.113281 69.050781 C 252.289062 70.175781 250.597656 73.558594 252.289062 76.375 C 253.984375 79.191406 256.242188 80.316406 259.0625 79.191406 Z M 222.375 271.265625 L 229.148438 266.195312 L 218.421875 252.675781 L 215.035156 248.171875 L 202.054688 258.308594 C 201.488281 258.875 201.488281 258.875 200.925781 258.875 C 200.359375 258.875 199.796875 258.875 199.230469 258.308594 C 198.667969 257.183594 198.667969 256.058594 199.796875 255.492188 L 212.777344 245.355469 L 208.828125 240.285156 L 198.101562 226.765625 L 191.328125 231.835938 C 190.765625 232.398438 190.765625 232.398438 190.199219 232.398438 C 189.636719 232.398438 189.070312 232.398438 188.507812 231.835938 C 187.941406 230.710938 187.941406 229.582031 189.070312 229.019531 L 197.539062 222.261719 C 197.539062 222.261719 198.101562 222.261719 198.101562 222.261719 L 217.859375 216.066406 C 217.859375 216.066406 218.421875 216.066406 218.988281 216.066406 L 234.792969 218.316406 L 241.566406 213.25 C 244.386719 210.433594 251.160156 207.617188 256.242188 208.179688 C 259.0625 208.179688 260.757812 209.304688 261.320312 210.433594 C 261.886719 211.558594 263.015625 213.25 262.449219 216.066406 C 261.320312 220.570312 257.371094 226.765625 253.417969 229.019531 L 246.644531 234.089844 L 244.386719 249.859375 C 244.386719 250.425781 244.386719 250.425781 243.824219 250.425781 L 233.097656 267.886719 C 233.097656 267.886719 233.097656 268.449219 232.535156 268.449219 L 224.632812 274.644531 C 224.066406 275.207031 224.066406 275.207031 223.503906 275.207031 C 222.9375 275.207031 222.375 275.207031 221.808594 274.644531 C 221.246094 273.519531 221.246094 271.828125 222.375 271.265625 Z M 226.324219 248.734375 L 222.9375 251.550781 L 231.40625 262.816406 L 240.4375 248.171875 L 241.566406 236.90625 Z M 202.054688 225.078125 L 210.519531 236.34375 L 229.710938 221.699219 L 218.421875 220.570312 Z M 224.632812 240.847656 L 218.421875 245.917969 L 220.679688 248.734375 L 238.179688 235.214844 L 251.160156 225.078125 C 253.984375 223.386719 257.371094 218.316406 257.933594 214.9375 C 257.933594 213.8125 257.933594 213.25 257.933594 212.683594 C 257.933594 212.121094 256.804688 212.121094 256.242188 212.121094 C 252.289062 212.121094 246.644531 214.375 244.953125 216.066406 L 237.050781 222.261719 L 213.34375 239.722656 L 215.601562 242.539062 L 221.808594 237.46875 C 222.9375 236.90625 224.066406 236.90625 224.632812 238.03125 C 225.761719 238.59375 225.195312 240.285156 224.632812 240.847656 Z M 189.636719 245.355469 C 190.199219 245.355469 190.765625 245.355469 190.765625 244.792969 L 198.101562 239.160156 C 199.230469 238.59375 199.230469 236.90625 198.667969 236.34375 C 198.101562 235.214844 196.410156 235.214844 195.84375 235.777344 L 188.507812 241.410156 C 187.378906 241.976562 187.378906 243.664062 187.941406 244.226562 C 188.507812 244.792969 189.070312 245.355469 189.636719 245.355469 Z M 218.988281 258.308594 C 218.421875 257.183594 216.730469 257.183594 216.164062 257.746094 L 211.648438 261.125 C 210.519531 261.691406 210.519531 263.378906 211.085938 263.941406 C 211.648438 264.507812 212.214844 264.507812 212.777344 264.507812 C 213.34375 264.507812 213.90625 264.507812 213.90625 263.941406 L 218.421875 260.5625 C 219.550781 260.5625 219.550781 258.875 218.988281 258.308594 Z M 213.90625 268.449219 L 208.261719 272.953125 C 207.132812 273.519531 207.132812 275.207031 207.699219 275.769531 C 208.261719 276.335938 208.828125 276.335938 209.390625 276.335938 C 209.957031 276.335938 210.519531 276.335938 210.519531 275.769531 L 216.164062 271.265625 C 217.292969 270.703125 217.292969 269.011719 216.730469 268.449219 C 216.164062 267.886719 214.472656 267.886719 213.90625 268.449219 Z M 196.410156 271.265625 C 196.972656 271.265625 197.539062 271.265625 197.539062 270.703125 L 202.054688 267.324219 C 203.183594 266.757812 203.183594 265.070312 202.617188 264.507812 C 202.054688 263.378906 200.359375 263.378906 199.796875 263.941406 L 195.28125 267.324219 C 194.152344 267.886719 194.152344 269.574219 194.714844 270.140625 C 195.28125 271.265625 195.84375 271.265625 196.410156 271.265625 Z M 190.765625 256.621094 C 190.199219 255.492188 188.507812 255.492188 187.941406 256.058594 L 180.039062 262.253906 C 178.910156 262.816406 178.910156 264.507812 179.476562 265.070312 C 180.039062 265.632812 180.605469 265.632812 181.167969 265.632812 C 181.734375 265.632812 182.296875 265.632812 182.296875 265.070312 L 190.199219 258.875 C 191.328125 258.875 191.894531 257.183594 190.765625 256.621094 Z M 182.296875 267.886719 L 177.78125 271.828125 C 176.652344 272.390625 176.652344 274.082031 177.21875 274.644531 C 177.78125 275.207031 178.347656 275.207031 178.910156 275.207031 C 179.476562 275.207031 180.039062 275.207031 180.039062 274.644531 L 184.554688 270.703125 C 185.683594 270.140625 185.683594 268.449219 185.121094 267.886719 C 184.554688 267.324219 183.425781 267.324219 182.296875 267.886719 Z M 195.28125 250.425781 C 196.410156 249.859375 196.410156 248.171875 195.84375 247.609375 C 195.28125 246.480469 193.585938 246.480469 193.023438 247.042969 L 190.199219 249.296875 C 189.070312 249.859375 189.070312 251.550781 189.636719 252.113281 C 190.199219 252.675781 190.765625 252.675781 191.328125 252.675781 C 191.894531 252.675781 192.457031 252.675781 192.457031 252.113281 Z M 195.28125 250.425781 "/></g></g></svg>