<svg xmlns="http://www.w3.org/2000/svg" xmlns:xlink="http://www.w3.org/1999/xlink" width="1920" zoomAndPan="magnify" viewBox="0 0 1440 809.999993" height="1080" preserveAspectRatio="xMidYMid meet" version="1.2"><defs><clipPath id="ece5bef281"><path d="M 55 243 L 415 243 L 415 539.496094 L 55 539.496094 Z M 55 243 "/></clipPath></defs><g id="b8488d97eb"><g clip-rule="nonzero" clip-path="url(#ece5bef281)"><path style=" stroke:none;fill-rule:nonzero;fill:#000000;fill-opacity:1;" d="M 378.890625 389.738281 C 383.84375 436.769531 364.027344 481.328125 327.488281 510.410156 C 303.332031 528.976562 274.226562 538.878906 244.5 538.878906 C 228.398438 538.878906 212.292969 535.785156 196.8125 530.214844 C 193.714844 528.976562 191.855469 525.261719 193.09375 522.167969 C 194.335938 519.074219 198.050781 517.21875 201.148438 518.457031 C 241.402344 533.308594 285.992188 526.5 320.054688 500.511719 C 353.5 474.519531 371.457031 433.058594 367.125 390.976562 C 366.503906 387.882812 368.980469 384.789062 372.695312 384.171875 C 375.792969 383.550781 378.890625 386.027344 378.890625 389.738281 Z M 147.265625 498.035156 C 148.503906 499.273438 150.363281 499.890625 151.601562 499.890625 C 153.460938 499.890625 154.699219 499.273438 155.9375 498.035156 C 158.414062 495.558594 158.414062 491.847656 155.9375 489.371094 C 152.839844 486.277344 149.742188 482.5625 146.648438 478.851562 C 105.152344 425.011719 114.441406 347.660156 168.324219 306.199219 C 194.335938 285.777344 226.539062 277.113281 259.363281 281.445312 C 292.1875 285.777344 321.292969 301.867188 341.113281 327.855469 C 344.828125 332.808594 347.925781 337.757812 351.019531 342.710938 C 352.878906 345.804688 356.59375 346.421875 359.691406 345.183594 C 362.789062 343.328125 363.40625 339.613281 362.167969 336.519531 C 359.070312 330.953125 355.355469 325.382812 351.019531 320.429688 C 328.726562 291.964844 296.519531 273.402344 260.601562 269.070312 C 225.300781 264.117188 189.378906 274.019531 160.890625 296.296875 C 102.054688 342.089844 91.527344 427.488281 137.355469 486.277344 C 140.453125 490.609375 143.550781 494.320312 147.265625 498.035156 Z M 219.105469 485.660156 C 217.25 482.5625 213.53125 481.945312 210.4375 483.800781 C 143.550781 524.027344 86.574219 538.257812 71.710938 519.074219 C 61.179688 506.078125 71.710938 476.375 98.960938 439.863281 C 100.816406 437.390625 100.199219 433.058594 97.722656 431.203125 C 95.242188 429.34375 90.910156 429.964844 89.050781 432.4375 C 56.847656 474.519531 47.554688 507.9375 61.800781 526.5 C 69.230469 535.785156 81 539.496094 95.242188 539.496094 C 128.066406 539.496094 175.753906 519.074219 217.25 494.320312 C 219.726562 492.464844 220.964844 488.753906 219.105469 485.660156 Z M 316.339844 270.304688 C 357.832031 253.597656 388.800781 251.121094 398.707031 264.117188 C 413.570312 283.921875 383.84375 337.757812 327.488281 393.453125 C 325.011719 395.929688 325.011719 399.640625 327.488281 402.117188 C 328.726562 403.355469 330.582031 403.972656 331.820312 403.972656 C 333.679688 403.972656 334.917969 403.355469 336.15625 402.117188 C 400.566406 339.613281 428.433594 282.683594 408.617188 256.691406 C 394.375 238.746094 360.3125 239.363281 312.003906 259.167969 C 308.90625 260.40625 307.050781 264.117188 308.90625 267.210938 C 310.765625 270.304688 313.242188 271.542969 316.339844 270.304688 Z M 276.082031 481.328125 L 283.515625 475.757812 L 271.75 460.90625 L 268.03125 455.953125 L 253.789062 467.09375 C 253.167969 467.710938 253.167969 467.710938 252.550781 467.710938 C 251.929688 467.710938 251.3125 467.710938 250.691406 467.09375 C 250.074219 465.855469 250.074219 464.617188 251.3125 464 L 265.554688 452.859375 L 261.21875 447.289062 L 249.453125 432.4375 L 242.019531 438.007812 C 241.402344 438.628906 241.402344 438.628906 240.78125 438.628906 C 240.164062 438.628906 239.542969 438.628906 238.925781 438.007812 C 238.304688 436.769531 238.304688 435.535156 239.542969 434.914062 L 248.832031 427.488281 C 248.832031 427.488281 249.453125 427.488281 249.453125 427.488281 L 271.128906 420.679688 C 271.128906 420.679688 271.75 420.679688 272.367188 420.679688 L 289.707031 423.15625 L 297.140625 417.585938 C 300.238281 414.492188 307.667969 411.398438 313.242188 412.019531 C 316.339844 412.019531 318.199219 413.253906 318.816406 414.492188 C 319.4375 415.730469 320.675781 417.585938 320.054688 420.679688 C 318.816406 425.632812 314.480469 432.4375 310.144531 434.914062 L 302.714844 440.484375 L 300.238281 457.8125 C 300.238281 458.429688 300.238281 458.429688 299.617188 458.429688 L 287.851562 477.613281 C 287.851562 477.613281 287.851562 478.230469 287.230469 478.230469 L 278.5625 485.039062 C 277.941406 485.65625 277.941406 485.65625 277.324219 485.65625 C 276.703125 485.65625 276.082031 485.65625 275.464844 485.039062 C 274.84375 483.800781 274.84375 481.945312 276.082031 481.328125 Z M 280.417969 456.574219 L 276.703125 459.667969 L 285.992188 472.042969 L 295.902344 455.953125 L 297.140625 443.578125 Z M 253.789062 430.582031 L 263.078125 442.960938 L 284.136719 426.871094 L 271.75 425.632812 Z M 278.5625 447.910156 L 271.75 453.480469 L 274.226562 456.574219 L 293.425781 441.722656 L 307.667969 430.582031 C 310.765625 428.726562 314.480469 423.15625 315.101562 419.445312 C 315.101562 418.207031 315.101562 417.585938 315.101562 416.96875 C 315.101562 416.347656 313.863281 416.347656 313.242188 416.347656 C 308.90625 416.347656 302.714844 418.824219 300.855469 420.679688 L 292.1875 427.488281 L 266.175781 446.671875 L 268.652344 449.765625 L 275.464844 444.195312 C 276.703125 443.578125 277.941406 443.578125 278.5625 444.816406 C 279.800781 445.433594 279.179688 447.289062 278.5625 447.910156 Z M 240.164062 452.859375 C 240.78125 452.859375 241.402344 452.859375 241.402344 452.242188 L 249.453125 446.054688 C 250.691406 445.433594 250.691406 443.578125 250.074219 442.960938 C 249.453125 441.722656 247.59375 441.722656 246.976562 442.339844 L 238.925781 448.527344 C 237.6875 449.148438 237.6875 451.003906 238.304688 451.621094 C 238.925781 452.242188 239.542969 452.859375 240.164062 452.859375 Z M 272.367188 467.09375 C 271.75 465.855469 269.890625 465.855469 269.269531 466.472656 L 264.316406 470.1875 C 263.078125 470.804688 263.078125 472.664062 263.699219 473.28125 C 264.316406 473.902344 264.9375 473.902344 265.554688 473.902344 C 266.175781 473.902344 266.792969 473.902344 266.792969 473.28125 L 271.75 469.570312 C 272.988281 469.570312 272.988281 467.710938 272.367188 467.09375 Z M 266.792969 478.230469 L 260.601562 483.183594 C 259.363281 483.800781 259.363281 485.660156 259.980469 486.277344 C 260.601562 486.894531 261.21875 486.894531 261.839844 486.894531 C 262.457031 486.894531 263.078125 486.894531 263.078125 486.277344 L 269.269531 481.328125 C 270.511719 480.707031 270.511719 478.851562 269.890625 478.230469 C 269.269531 477.613281 267.414062 477.613281 266.792969 478.230469 Z M 247.59375 481.328125 C 248.214844 481.328125 248.832031 481.328125 248.832031 480.707031 L 253.789062 476.996094 C 255.027344 476.375 255.027344 474.519531 254.40625 473.902344 C 253.789062 472.664062 251.929688 472.664062 251.3125 473.28125 L 246.355469 476.996094 C 245.117188 477.613281 245.117188 479.46875 245.738281 480.089844 C 246.355469 481.328125 246.976562 481.328125 247.59375 481.328125 Z M 241.402344 465.238281 C 240.78125 464 238.925781 464 238.304688 464.617188 L 229.636719 471.425781 C 228.398438 472.042969 228.398438 473.902344 229.015625 474.519531 C 229.636719 475.136719 230.253906 475.136719 230.875 475.136719 C 231.492188 475.136719 232.113281 475.136719 232.113281 474.519531 L 240.78125 467.710938 C 242.019531 467.710938 242.640625 465.855469 241.402344 465.238281 Z M 232.113281 477.613281 L 227.15625 481.945312 C 225.917969 482.5625 225.917969 484.421875 226.539062 485.039062 C 227.15625 485.660156 227.777344 485.660156 228.398438 485.660156 C 229.015625 485.660156 229.636719 485.660156 229.636719 485.039062 L 234.589844 480.707031 C 235.828125 480.089844 235.828125 478.230469 235.210938 477.613281 C 234.589844 476.996094 233.351562 476.996094 232.113281 477.613281 Z M 246.355469 458.429688 C 247.59375 457.8125 247.59375 455.953125 246.976562 455.335938 C 246.355469 454.097656 244.5 454.097656 243.878906 454.71875 L 240.78125 457.191406 C 239.542969 457.8125 239.542969 459.667969 240.164062 460.285156 C 240.78125 460.90625 241.402344 460.90625 242.019531 460.90625 C 242.640625 460.90625 243.261719 460.90625 243.261719 460.285156 Z M 246.355469 458.429688 "/></g><g style="fill:#000000;fill-opacity:1;"><g transform="translate(471.83463, 443.084799)"><path style="stroke:none" d="M 30.5625 -92.859375 L 77.5 -92.859375 C 82.726562 -92.859375 87.125 -91.046875 90.6875 -87.421875 C 94.25 -83.804688 96.03125 -79.382812 96.03125 -74.15625 L 96.03125 -38.921875 L 28.21875 -38.921875 L 28.21875 -23.546875 C 28.21875 -21.429688 29.023438 -19.535156 30.640625 -17.859375 C 32.253906 -16.191406 34.125 -15.359375 36.25 -15.359375 L 71.984375 -15.359375 C 74.210938 -15.359375 76.078125 -16.191406 77.578125 -17.859375 C 79.078125 -19.535156 79.828125 -21.429688 79.828125 -23.546875 L 79.828125 -28.390625 L 96.03125 -28.390625 L 96.03125 -18.53125 C 96.03125 -13.414062 94.25 -9.046875 90.6875 -5.421875 C 87.125 -1.804688 82.726562 0 77.5 0 L 30.5625 0 C 25.4375 0 21.066406 -1.804688 17.453125 -5.421875 C 13.835938 -9.046875 12.03125 -13.414062 12.03125 -18.53125 L 12.03125 -74.15625 C 12.03125 -79.382812 13.835938 -83.804688 17.453125 -87.421875 C 21.066406 -91.046875 25.4375 -92.859375 30.5625 -92.859375 Z M 28.21875 -53.78125 L 79.828125 -53.78125 L 79.828125 -69.140625 C 79.828125 -71.367188 79.078125 -73.289062 77.578125 -74.90625 C 76.078125 -76.519531 74.210938 -77.328125 71.984375 -77.328125 L 36.25 -77.328125 C 34.125 -77.328125 32.253906 -76.519531 30.640625 -74.90625 C 29.023438 -73.289062 28.21875 -71.367188 28.21875 -69.140625 Z M 28.21875 -53.78125 "/></g></g><g style="fill:#000000;fill-opacity:1;"><g transform="translate(579.719126, 443.084799)"><path style="stroke:none" d="M 1.84375 -92.859375 L 21.71875 -92.859375 L 47.765625 -56.28125 L 73.484375 -92.859375 L 93.1875 -92.859375 L 57.78125 -46.4375 L 93.1875 0 L 73.484375 0 L 47.765625 -36.25 L 21.71875 0 L 1.84375 0 L 37.40625 -46.4375 Z M 1.84375 -92.859375 "/></g></g><g style="fill:#000000;fill-opacity:1;"><g transform="translate(674.577293, 443.084799)"><path style="stroke:none" d="M 30.5625 -92.859375 L 77.5 -92.859375 C 82.726562 -92.859375 87.125 -91.046875 90.6875 -87.421875 C 94.25 -83.804688 96.03125 -79.382812 96.03125 -74.15625 L 96.03125 -18.53125 C 96.03125 -13.414062 94.25 -9.046875 90.6875 -5.421875 C 87.125 -1.804688 82.726562 0 77.5 0 L 30.5625 0 C 25.4375 0 21.066406 -1.804688 17.453125 -5.421875 C 13.835938 -9.046875 12.03125 -13.414062 12.03125 -18.53125 L 12.03125 -74.15625 C 12.03125 -79.382812 13.835938 -83.804688 17.453125 -87.421875 C 21.066406 -91.046875 25.4375 -92.859375 30.5625 -92.859375 Z M 36.25 -77.328125 C 34.125 -77.328125 32.253906 -76.519531 30.640625 -74.90625 C 29.023438 -73.289062 28.21875 -71.367188 28.21875 -69.140625 L 28.21875 -23.546875 C 28.21875 -21.429688 29.023438 -19.535156 30.640625 -17.859375 C 32.253906 -16.191406 34.125 -15.359375 36.25 -15.359375 L 71.984375 -15.359375 C 74.210938 -15.359375 76.078125 -16.191406 77.578125 -17.859375 C 79.078125 -19.535156 79.828125 -21.429688 79.828125 -23.546875 L 79.828125 -69.140625 C 79.828125 -71.367188 79.078125 -73.289062 77.578125 -74.90625 C 76.078125 -76.519531 74.210938 -77.328125 71.984375 -77.328125 Z M 36.25 -77.328125 "/></g></g><g style="fill:#000000;fill-opacity:1;"><g transform="translate(782.461789, 443.084799)"><path style="stroke:none" d="M 30.5625 -92.859375 L 77.5 -92.859375 C 80.832031 -92.859375 83.921875 -91.992188 86.765625 -90.265625 C 89.609375 -88.546875 91.863281 -86.265625 93.53125 -83.421875 C 95.195312 -80.585938 96.03125 -77.5 96.03125 -74.15625 L 96.03125 -64.796875 L 79.828125 -64.796875 L 79.828125 -69.140625 C 79.828125 -71.367188 79.078125 -73.289062 77.578125 -74.90625 C 76.078125 -76.519531 74.210938 -77.328125 71.984375 -77.328125 L 36.25 -77.328125 C 34.125 -77.328125 32.253906 -76.519531 30.640625 -74.90625 C 29.023438 -73.289062 28.21875 -71.367188 28.21875 -69.140625 L 28.21875 -61.625 C 28.21875 -59.507812 29.023438 -57.671875 30.640625 -56.109375 C 32.253906 -54.554688 34.125 -53.78125 36.25 -53.78125 L 77.5 -53.78125 C 82.726562 -53.78125 87.125 -51.941406 90.6875 -48.265625 C 94.25 -44.585938 96.03125 -40.132812 96.03125 -34.90625 L 96.03125 -18.53125 C 96.03125 -13.414062 94.25 -9.046875 90.6875 -5.421875 C 87.125 -1.804688 82.726562 0 77.5 0 L 30.5625 0 C 27.21875 0 24.15625 -0.859375 21.375 -2.578125 C 18.59375 -4.304688 16.335938 -6.5625 14.609375 -9.34375 C 12.890625 -12.132812 12.03125 -15.195312 12.03125 -18.53125 L 12.03125 -27.890625 L 28.21875 -27.890625 L 28.21875 -23.546875 C 28.21875 -21.429688 29.023438 -19.535156 30.640625 -17.859375 C 32.253906 -16.191406 34.125 -15.359375 36.25 -15.359375 L 71.984375 -15.359375 C 74.210938 -15.359375 76.078125 -16.191406 77.578125 -17.859375 C 79.078125 -19.535156 79.828125 -21.429688 79.828125 -23.546875 L 79.828125 -31.0625 C 79.828125 -33.289062 79.078125 -35.15625 77.578125 -36.65625 C 76.078125 -38.164062 74.210938 -38.921875 71.984375 -38.921875 L 30.5625 -38.921875 C 25.4375 -38.921875 21.066406 -40.726562 17.453125 -44.34375 C 13.835938 -47.957031 12.03125 -52.328125 12.03125 -57.453125 L 12.03125 -74.15625 C 12.03125 -79.382812 13.835938 -83.804688 17.453125 -87.421875 C 21.066406 -91.046875 25.4375 -92.859375 30.5625 -92.859375 Z M 30.5625 -92.859375 "/></g></g><g style="fill:#000000;fill-opacity:1;"><g transform="translate(890.346284, 443.084799)"><path style="stroke:none" d="M 12.03125 -92.859375 L 28.21875 -92.859375 L 28.21875 -77.828125 C 30.113281 -82.285156 33.066406 -85.90625 37.078125 -88.6875 C 41.085938 -91.46875 45.597656 -92.859375 50.609375 -92.859375 L 77.5 -92.859375 C 82.726562 -92.859375 87.125 -91.046875 90.6875 -87.421875 C 94.25 -83.804688 96.03125 -79.382812 96.03125 -74.15625 L 96.03125 -18.53125 C 96.03125 -13.414062 94.25 -9.046875 90.6875 -5.421875 C 87.125 -1.804688 82.726562 0 77.5 0 L 50.609375 0 C 45.929688 0 41.503906 -1.332031 37.328125 -4 C 33.148438 -6.675781 30.113281 -10.351562 28.21875 -15.03125 L 28.21875 37.078125 L 12.03125 37.078125 Z M 45.921875 -77.328125 C 42.691406 -77.328125 39.738281 -76.460938 37.0625 -74.734375 C 34.394531 -73.015625 32.253906 -70.757812 30.640625 -67.96875 C 29.023438 -65.1875 28.21875 -62.179688 28.21875 -58.953125 L 28.21875 -33.40625 C 28.21875 -30.175781 29.023438 -27.164062 30.640625 -24.375 C 32.253906 -21.59375 34.394531 -19.394531 37.0625 -17.78125 C 39.738281 -16.164062 42.691406 -15.359375 45.921875 -15.359375 L 71.15625 -15.359375 C 73.375 -15.359375 75.375 -16.164062 77.15625 -17.78125 C 78.9375 -19.394531 79.828125 -21.316406 79.828125 -23.546875 L 79.828125 -69.140625 C 79.828125 -71.367188 78.9375 -73.289062 77.15625 -74.90625 C 75.375 -76.519531 73.375 -77.328125 71.15625 -77.328125 Z M 45.921875 -77.328125 "/></g></g><g style="fill:#000000;fill-opacity:1;"><g transform="translate(998.23078, 443.084799)"><path style="stroke:none" d="M 12.03125 -129.9375 L 28.21875 -129.9375 L 28.21875 -78 C 30.113281 -82.5625 33.203125 -86.175781 37.484375 -88.84375 C 41.773438 -91.519531 46.257812 -92.859375 50.9375 -92.859375 L 77.5 -92.859375 C 82.726562 -92.859375 87.125 -91.046875 90.6875 -87.421875 C 94.25 -83.804688 96.03125 -79.382812 96.03125 -74.15625 L 96.03125 0 L 79.828125 0 L 79.828125 -69.140625 C 79.828125 -71.367188 79.078125 -73.289062 77.578125 -74.90625 C 76.078125 -76.519531 74.210938 -77.328125 71.984375 -77.328125 L 46.265625 -77.328125 C 41.367188 -77.328125 37.132812 -75.628906 33.5625 -72.234375 C 30 -68.835938 28.21875 -64.691406 28.21875 -59.796875 L 28.21875 0 L 12.03125 0 Z M 12.03125 -129.9375 "/></g></g><g style="fill:#000000;fill-opacity:1;"><g transform="translate(1106.115276, 443.084799)"><path style="stroke:none" d="M 30.5625 -92.859375 L 77.5 -92.859375 C 82.726562 -92.859375 87.125 -91.046875 90.6875 -87.421875 C 94.25 -83.804688 96.03125 -79.382812 96.03125 -74.15625 L 96.03125 -38.921875 L 28.21875 -38.921875 L 28.21875 -23.546875 C 28.21875 -21.429688 29.023438 -19.535156 30.640625 -17.859375 C 32.253906 -16.191406 34.125 -15.359375 36.25 -15.359375 L 71.984375 -15.359375 C 74.210938 -15.359375 76.078125 -16.191406 77.578125 -17.859375 C 79.078125 -19.535156 79.828125 -21.429688 79.828125 -23.546875 L 79.828125 -28.390625 L 96.03125 -28.390625 L 96.03125 -18.53125 C 96.03125 -13.414062 94.25 -9.046875 90.6875 -5.421875 C 87.125 -1.804688 82.726562 0 77.5 0 L 30.5625 0 C 25.4375 0 21.066406 -1.804688 17.453125 -5.421875 C 13.835938 -9.046875 12.03125 -13.414062 12.03125 -18.53125 L 12.03125 -74.15625 C 12.03125 -79.382812 13.835938 -83.804688 17.453125 -87.421875 C 21.066406 -91.046875 25.4375 -92.859375 30.5625 -92.859375 Z M 28.21875 -53.78125 L 79.828125 -53.78125 L 79.828125 -69.140625 C 79.828125 -71.367188 79.078125 -73.289062 77.578125 -74.90625 C 76.078125 -76.519531 74.210938 -77.328125 71.984375 -77.328125 L 36.25 -77.328125 C 34.125 -77.328125 32.253906 -76.519531 30.640625 -74.90625 C 29.023438 -73.289062 28.21875 -71.367188 28.21875 -69.140625 Z M 28.21875 -53.78125 "/></g></g><g style="fill:#000000;fill-opacity:1;"><g transform="translate(1213.999771, 443.084799)"><path style="stroke:none" d="M 12.03125 -92.859375 L 28.21875 -92.859375 L 28.21875 -78 C 30.113281 -82.5625 33.175781 -86.175781 37.40625 -88.84375 C 41.644531 -91.519531 46.097656 -92.859375 50.765625 -92.859375 L 68.984375 -92.859375 L 68.984375 -77.328125 L 45.921875 -77.328125 C 41.140625 -77.328125 36.992188 -75.628906 33.484375 -72.234375 C 29.972656 -68.835938 28.21875 -64.691406 28.21875 -59.796875 L 28.21875 0 L 12.03125 0 Z M 12.03125 -92.859375 "/></g></g><g style="fill:#000000;fill-opacity:1;"><g transform="translate(1284.475358, 443.084799)"><path style="stroke:none" d="M 30.5625 -92.859375 L 77.5 -92.859375 C 82.726562 -92.859375 87.125 -91.046875 90.6875 -87.421875 C 94.25 -83.804688 96.03125 -79.382812 96.03125 -74.15625 L 96.03125 -38.921875 L 28.21875 -38.921875 L 28.21875 -23.546875 C 28.21875 -21.429688 29.023438 -19.535156 30.640625 -17.859375 C 32.253906 -16.191406 34.125 -15.359375 36.25 -15.359375 L 71.984375 -15.359375 C 74.210938 -15.359375 76.078125 -16.191406 77.578125 -17.859375 C 79.078125 -19.535156 79.828125 -21.429688 79.828125 -23.546875 L 79.828125 -28.390625 L 96.03125 -28.390625 L 96.03125 -18.53125 C 96.03125 -13.414062 94.25 -9.046875 90.6875 -5.421875 C 87.125 -1.804688 82.726562 0 77.5 0 L 30.5625 0 C 25.4375 0 21.066406 -1.804688 17.453125 -5.421875 C 13.835938 -9.046875 12.03125 -13.414062 12.03125 -18.53125 L 12.03125 -74.15625 C 12.03125 -79.382812 13.835938 -83.804688 17.453125 -87.421875 C 21.066406 -91.046875 25.4375 -92.859375 30.5625 -92.859375 Z M 28.21875 -53.78125 L 79.828125 -53.78125 L 79.828125 -69.140625 C 79.828125 -71.367188 79.078125 -73.289062 77.578125 -74.90625 C 76.078125 -76.519531 74.210938 -77.328125 71.984375 -77.328125 L 36.25 -77.328125 C 34.125 -77.328125 32.253906 -76.519531 30.640625 -74.90625 C 29.023438 -73.289062 28.21875 -71.367188 28.21875 -69.140625 Z M 28.21875 -53.78125 "/></g></g></g></svg>